<svg version="1.0" xmlns="http://www.w3.org/2000/svg"
 width="512.000000pt" height="512.000000pt" viewBox="0 0 512.000000 512.000000"
 preserveAspectRatio="xMidYMid meet">

<g transform="translate(0.000000,512.000000) scale(0.100000,-0.100000)"
 stroke="none" fill="#e31b6d">
<path d="M2425 5114 c-456 -46 -825 -216 -1129 -520 -438 -438 -626 -1162
-476 -1839 43 -196 144 -443 240 -586 172 -256 1494 -2159 1500 -2159 6 0
1328 1903 1500 2159 23 35 69 119 101 185 126 266 189 552 189 866 0 541 -190
1037 -526 1374 -268 269 -613 445 -979 502 -92 14 -349 25 -420 18z m360
-1152 c378 -131 551 -552 374 -912 -59 -119 -170 -230 -289 -289 -350 -172
-761 -14 -903 349 -101 259 -21 558 198 740 62 51 192 115 265 129 30 6 64 13
75 15 52 12 201 -5 280 -32z"/>
</g>
</svg>
